<svg width="45" height="32" viewBox="0 0 45 32" fill="none" xmlns="http://www.w3.org/2000/svg">
<rect x="0.5" y="0.5" width="44" height="30.7647" rx="4.79412" fill="#1A1A1A" stroke="#333333"/>
<path fill-rule="evenodd" clip-rule="evenodd" d="M12.5076 11.0424C12.1299 11.5081 11.5255 11.8755 10.9212 11.823C10.8456 11.1932 11.1415 10.5241 11.4877 10.1109C11.8655 9.632 12.5265 9.29089 13.0615 9.26465C13.1245 9.92063 12.879 10.5635 12.5076 11.0424ZM13.0545 11.9476C12.522 11.9157 12.0362 12.1144 11.6438 12.275C11.3913 12.3783 11.1775 12.4658 11.0148 12.4658C10.8322 12.4658 10.6096 12.3736 10.3596 12.2702C10.032 12.1345 9.65749 11.9795 9.26475 11.9869C8.36453 12.0001 7.52727 12.5314 7.06773 13.3776C6.12345 15.0701 6.82221 17.5759 7.73502 18.9535C8.18197 19.6357 8.71707 20.3835 9.42213 20.3573C9.73231 20.3451 9.95544 20.2464 10.1864 20.1443C10.4522 20.0268 10.7284 19.9046 11.1596 19.9046C11.5759 19.9046 11.84 20.0236 12.0935 20.1377C12.3345 20.2463 12.566 20.3505 12.9097 20.3441C13.6399 20.331 14.0995 19.6619 14.5464 18.9797C15.0288 18.2475 15.2407 17.5329 15.2729 17.4245L15.2767 17.4119C15.2759 17.4111 15.2699 17.4083 15.2594 17.4032C15.0982 17.3263 13.8658 16.7384 13.8539 15.1619C13.8421 13.8386 14.8315 13.1682 14.9872 13.0627C14.9967 13.0562 15.0031 13.0519 15.006 13.0496C14.3764 12.0788 13.3944 11.9738 13.0545 11.9476ZM18.1086 20.272V10.0452H21.7913C23.6924 10.0452 25.0207 11.4097 25.0207 13.4039C25.0207 15.398 23.6672 16.7756 21.7409 16.7756H19.632V20.272H18.1086ZM19.6337 11.3835H21.3901C22.7121 11.3835 23.4675 12.1182 23.4675 13.4105C23.4675 14.7027 22.7121 15.444 21.3838 15.444H19.6337V11.3835ZM30.0505 19.0453C29.6476 19.8456 28.76 20.3507 27.8031 20.3507C26.3867 20.3507 25.3983 19.4717 25.3983 18.1466C25.3983 16.8347 26.3552 16.0803 28.1241 15.9688L30.0253 15.8507V15.2865C30.0253 14.4535 29.5028 14.0008 28.5711 14.0008C27.8031 14.0008 27.2428 14.4141 27.1295 15.0438H25.7571C25.8012 13.7188 26.9973 12.7545 28.6152 12.7545C30.3589 12.7545 31.4921 13.7056 31.4921 15.1816V20.272H30.0819V19.0453H30.0505ZM28.213 19.1372C27.4009 19.1372 26.8847 18.7304 26.8847 18.1073C26.8847 17.4644 27.382 17.0905 28.3326 17.0315L30.026 16.9199V17.4972C30.026 18.4549 29.2454 19.1372 28.213 19.1372ZM36.1713 20.6721C35.5607 22.463 34.8619 23.0534 33.3763 23.0534C33.263 23.0534 32.8853 23.0402 32.7971 23.014V21.7873C32.8916 21.8004 33.1245 21.8136 33.2441 21.8136C33.9177 21.8136 34.2954 21.5184 34.5283 20.7509L34.6668 20.2982L32.0858 12.8529H33.6784L35.4726 18.8944H35.5041L37.2982 12.8529H38.8468L36.1713 20.6721Z" fill="white"/>
</svg>
