<svg width="32" height="40" viewBox="0 0 32 40" fill="none" xmlns="http://www.w3.org/2000/svg">
<path d="M31.9801 34.6678L29.6783 8.72697C29.6369 8.21362 29.2063 7.82447 28.6847 7.82447H23.8327C23.8244 3.51066 20.3138 0 16 0C11.6862 0 8.1755 3.51066 8.16722 7.82447H3.31522C2.80187 7.82447 2.37132 8.21362 2.32164 8.72697L0.0198364 34.6678C0.0198364 34.7009 0.0198364 34.7257 0.0198364 34.7588C0.0198364 37.6485 2.67767 40 5.93994 40H26.06C29.3223 40 31.9801 37.6485 31.9801 34.7588C31.9801 34.7257 31.9801 34.7009 31.9801 34.6678ZM16 1.98717C19.2208 1.98717 21.8373 4.6036 21.8455 7.82447H10.1544C10.1627 4.6036 12.7791 1.98717 16 1.98717ZM26.06 38.0046H5.93994C3.78717 38.0046 2.03184 36.5721 2.007 34.792L4.22601 9.81163H8.16722V13.2975C8.16722 13.8439 8.61433 14.291 9.1608 14.291C9.70727 14.291 10.1544 13.8439 10.1544 13.2975V9.81163H21.8455V13.2975C21.8455 13.8439 22.2927 14.291 22.8391 14.291C23.3856 14.291 23.8327 13.8439 23.8327 13.2975V9.81163H27.7739L29.9929 34.8002C29.9681 36.5721 28.2128 38.0046 26.06 38.0046Z" fill="#5A189A"/>
<path d="M20.1316 20.6831L14.2694 26.5453L11.8766 24.1524C11.4874 23.7632 10.8581 23.7632 10.469 24.1524C10.0798 24.5415 10.0798 25.1708 10.469 25.56L13.5657 28.6566C13.7561 28.8471 14.0128 28.9464 14.2694 28.9464C14.5261 28.9464 14.7745 28.8471 14.9732 28.6566L21.5391 22.0907C21.9283 21.7015 21.9283 21.0723 21.5391 20.6831C21.15 20.3022 20.5207 20.3022 20.1316 20.6831Z" fill="#5A189A"/>
</svg>
