<svg width="38" height="40" viewBox="0 0 38 40" fill="none" xmlns="http://www.w3.org/2000/svg">
<path d="M37.3959 9.43014C37.3959 9.27818 37.3622 9.12621 37.2946 8.98269C37.1596 8.69565 36.8978 8.50148 36.6108 8.44238L19.4137 0.101309C19.1351 -0.0337695 18.8058 -0.0337695 18.5272 0.101309L1.16124 8.51836C0.823545 8.67877 0.604043 9.01646 0.587158 9.39637V9.40481C0.587158 9.41325 0.587158 9.4217 0.587158 9.43858V30.5614C0.587158 30.9498 0.80666 31.3043 1.16124 31.4732L18.5272 39.8903C18.5357 39.8903 18.5357 39.8903 18.5441 39.8987C18.5694 39.9071 18.5948 39.9156 18.6201 39.9325C18.6285 39.9325 18.637 39.9409 18.6539 39.9409C18.6792 39.9493 18.7045 39.9578 18.7298 39.9662C18.7383 39.9662 18.7467 39.9747 18.7552 39.9747C18.7805 39.9831 18.8143 39.9831 18.8396 39.9916C18.848 39.9916 18.8565 39.9916 18.8649 39.9916C18.8987 39.9916 18.9409 40 18.9747 40C19.0084 40 19.0506 40 19.0844 39.9916C19.0929 39.9916 19.1013 39.9916 19.1097 39.9916C19.1351 39.9916 19.1688 39.9831 19.1942 39.9747C19.2026 39.9747 19.211 39.9662 19.2195 39.9662C19.2448 39.9578 19.2701 39.9493 19.2955 39.9409C19.3039 39.9409 19.3124 39.9325 19.3292 39.9325C19.3546 39.924 19.3799 39.9156 19.4052 39.8987C19.4137 39.8987 19.4137 39.8987 19.4221 39.8903L36.8387 31.4479C37.1849 31.279 37.4128 30.9244 37.4128 30.5361V9.45547C37.3959 9.44702 37.3959 9.43858 37.3959 9.43014ZM18.9662 2.13592L34.0274 9.43858L28.4808 12.1317L13.4196 4.82904L18.9662 2.13592ZM18.9662 16.7412L3.90501 9.43858L11.0979 5.95188L26.1591 13.2545L18.9662 16.7412ZM2.61333 11.068L17.9531 18.5057V37.3575L2.61333 29.9198V11.068ZM19.9793 37.3575V18.5057L27.1807 15.0106V19.9409C27.1807 20.4981 27.6365 20.954 28.1937 20.954C28.7509 20.954 29.2068 20.4981 29.2068 19.9409V14.0228L35.3698 11.0342V29.886L19.9793 37.3575Z" fill="#5A189A"/>
</svg>
