<svg width="45" height="32" viewBox="0 0 45 32" fill="none" xmlns="http://www.w3.org/2000/svg">
<rect x="0.5" y="0.5" width="44" height="30.7647" rx="4.79412" fill="#1A1A1A" stroke="#333333"/>
<path d="M18.5293 30.6762L43.6764 23.0659V26.7056C43.6764 28.8985 41.8987 30.6762 39.7058 30.6762H18.5293Z" fill="#FD6020"/>
<path fill-rule="evenodd" clip-rule="evenodd" d="M38.9044 12.0583C40.2878 12.0583 41.0488 12.6983 41.0488 13.9072C41.1179 14.8316 40.4954 15.6138 39.6653 15.756L41.533 18.387H40.0803L38.4893 15.8271H38.351V18.387H37.175V12.0583H38.9044ZM38.3506 14.9738H38.6964C39.4574 14.9738 39.8032 14.6183 39.8032 13.9783C39.8032 13.4094 39.4574 13.0539 38.6964 13.0539H38.3506V14.9738ZM33.0933 18.387H36.4136V17.3204H34.2692V15.6138H36.3444V14.5471H34.2692V13.125H36.4136V12.0583H33.0933V18.387ZM29.6349 16.3249L28.0439 12.0583H26.7988L29.3582 18.5293H29.9808L32.5402 12.0583H31.2951L29.6349 16.3249ZM15.5927 15.2582C15.5927 17.036 16.9762 18.5293 18.7055 18.5293C19.2589 18.5293 19.7431 18.3871 20.2274 18.1737V16.7515C19.8815 17.1782 19.3973 17.4626 18.8439 17.4626C17.7371 17.4626 16.8378 16.6093 16.8378 15.4716V15.3294C16.7687 14.1916 17.6679 13.1961 18.7747 13.125C19.3281 13.125 19.8815 13.4094 20.2274 13.8361V12.4139C19.8123 12.1294 19.2589 12.0583 18.7747 12.0583C16.9762 11.9161 15.5927 13.4094 15.5927 15.2582ZM13.4467 14.476C12.7549 14.1916 12.5474 14.0494 12.5474 13.6938C12.6166 13.2672 12.9625 12.9116 13.3775 12.9828C13.7234 12.9828 14.0692 13.1961 14.3459 13.4805L14.9685 12.6272C14.4843 12.2005 13.8617 11.9161 13.2392 11.9161C12.2707 11.845 11.4406 12.6272 11.3715 13.6227V13.6938C11.3715 14.5472 11.7173 15.0449 12.8241 15.4005C13.1008 15.4716 13.3775 15.6138 13.6542 15.756C13.8617 15.8982 14.0001 16.1116 14.0001 16.396C14.0001 16.8938 13.585 17.3204 13.17 17.3204H13.1008C12.5474 17.3204 12.0632 16.9649 11.8557 16.4671L11.0948 17.2493C11.5098 18.0315 12.3399 18.4582 13.17 18.4582C14.2768 18.5293 15.176 17.676 15.2452 16.5382V16.3249C15.176 15.4716 14.8302 15.0449 13.4467 14.476ZM9.43519 18.387H10.6111V12.0583H9.43519V18.387ZM3.97046 12.0583H5.69981H6.04568C7.70585 12.1294 9.02015 13.5516 8.95098 15.2582C8.95098 16.1827 8.53594 17.036 7.8442 17.6759C7.22163 18.1737 6.46072 18.4581 5.69981 18.387H3.97046V12.0583ZM5.4924 17.3204C6.04579 17.3915 6.66835 17.1782 7.0834 16.8226C7.49844 16.396 7.70596 15.8271 7.70596 15.1871C7.70596 14.6182 7.49844 14.0493 7.0834 13.6227C6.66835 13.2671 6.04579 13.0538 5.4924 13.1249H5.14653V17.3204H5.4924Z" fill="white"/>
<path fill-rule="evenodd" clip-rule="evenodd" d="M23.7534 11.9116C22.0241 11.9116 20.5714 13.3338 20.5714 15.1826C20.5714 16.9604 21.9549 18.4537 23.7534 18.5248C25.5519 18.5959 26.9354 17.1026 27.0046 15.2538C26.9354 13.4049 25.5519 11.9116 23.7534 11.9116V11.9116Z" fill="#FD6020"/>
</svg>
