<svg width="38" height="40" viewBox="0 0 38 40" fill="none" xmlns="http://www.w3.org/2000/svg">
<path d="M32.6848 15.2101V13.6723C32.6848 9.9916 31.3823 6.57143 29.021 4.03361C26.6008 1.42857 23.2731 0 19.6428 0H18.3739C14.7437 0 11.4159 1.42857 8.99575 4.03361C6.6344 6.57143 5.33188 9.9916 5.33188 13.6723V15.2101C2.46634 15.4034 0.189026 17.7899 0.189026 20.7059V23.1092C0.189026 26.1429 2.65961 28.6134 5.69323 28.6134H8.79407C9.34869 28.6134 9.80247 28.1597 9.80247 27.605V16.2017C9.80247 15.6471 9.34869 15.1933 8.79407 15.1933H7.34869V13.6723C7.34869 7.02521 12.0882 2.01681 18.3655 2.01681H19.6344C25.9201 2.01681 30.6512 7.02521 30.6512 13.6723V15.1933H29.2058C28.6512 15.1933 28.1974 15.6471 28.1974 16.2017V27.5966C28.1974 28.1513 28.6512 28.605 29.2058 28.605H30.6176C30.2058 33.8655 26.584 35.084 24.9033 35.3613C24.4411 33.9412 23.105 32.916 21.5336 32.916H19.0126C17.063 32.916 15.4747 34.5042 15.4747 36.4538C15.4747 38.4034 17.063 40 19.0126 40H21.542C23.1722 40 24.542 38.8908 24.9537 37.395C25.7773 37.2773 27.0798 36.9832 28.3739 36.2269C30.1974 35.1597 32.3571 32.9832 32.6428 28.5966C35.5252 28.4202 37.8109 26.0252 37.8109 23.1008V20.6975C37.8193 17.7899 35.5504 15.395 32.6848 15.2101ZM7.80247 26.5882H5.71003C3.78566 26.5882 2.22264 25.0252 2.22264 23.1008V20.6975C2.22264 18.7731 3.78566 17.2101 5.71003 17.2101H7.80247V26.5882ZM21.542 37.9832H19.0126C18.1722 37.9832 17.4915 37.3025 17.4915 36.4622C17.4915 35.6218 18.1722 34.9412 19.0126 34.9412H21.542C22.3823 34.9412 23.063 35.6218 23.063 36.4622C23.063 37.3025 22.3823 37.9832 21.542 37.9832ZM35.8025 23.1008C35.8025 25.0252 34.2395 26.5882 32.3151 26.5882H30.2226V17.2101H32.3151C34.2395 17.2101 35.8025 18.7731 35.8025 20.6975V23.1008Z" fill="#5A189A"/>
</svg>
