<svg width="29" height="29" viewBox="0 0 29 29" fill="none" xmlns="http://www.w3.org/2000/svg">
<g clip-path="url(#clip0_1905_16625)">
<path d="M14.5 28.5134C22.2394 28.5134 28.5134 22.2394 28.5134 14.5C28.5134 6.76061 22.2394 0.486599 14.5 0.486599C6.76062 0.486599 0.486603 6.76061 0.486603 14.5C0.486603 22.2394 6.76062 28.5134 14.5 28.5134Z" fill="#733CB9"/>
<path d="M14.5 20.2091C17.6531 20.2091 20.2091 17.6531 20.2091 14.5C20.2091 11.3469 17.6531 8.79085 14.5 8.79085C11.3469 8.79085 8.79085 11.3469 8.79085 14.5C8.79085 17.6531 11.3469 20.2091 14.5 20.2091Z" fill="#FF507D"/>
<path d="M24.7531 4.24691C22.0144 1.50828 18.3731 0 14.5 0C10.6269 0 6.9856 1.50828 4.24691 4.24691C1.50828 6.9856 0 10.6269 0 14.5C0 18.3731 1.50828 22.0144 4.24691 24.7531C6.9856 27.4917 10.6269 29 14.5 29C18.3731 29 22.0144 27.4917 24.7531 24.7531C27.4917 22.0144 29 18.3731 29 14.5C29 10.6269 27.4917 6.9856 24.7531 4.24691ZM14.5 28.0269C7.04128 28.0269 0.973143 21.9587 0.973143 14.5C0.973143 7.04128 7.04128 0.973143 14.5 0.973143C21.9587 0.973143 28.0269 7.04128 28.0269 14.5C28.0269 21.9587 21.9587 28.0269 14.5 28.0269Z" fill="black"/>
<path d="M14.5 8.30425C11.0837 8.30425 8.30426 11.0837 8.30426 14.5C8.30426 17.9163 11.0837 20.6957 14.5 20.6957C17.9163 20.6957 20.6958 17.9163 20.6958 14.5C20.6958 11.0837 17.9163 8.30425 14.5 8.30425ZM14.0134 19.6991C12.9381 19.5992 11.9563 19.1727 11.169 18.519L14.0134 15.6747V19.6991ZM14.0134 14.2985L10.4808 17.831C9.72979 16.9263 9.2774 15.765 9.2774 14.5C9.2774 11.7844 11.361 9.54717 14.0134 9.3009V14.2985ZM14.9866 19.6991V15.6747L17.831 18.519C17.0436 19.1727 16.0619 19.5992 14.9866 19.6991ZM18.5191 17.831L14.9866 14.2985V9.30084C17.6389 9.54717 19.7226 11.7844 19.7226 14.4999C19.7226 15.765 19.2702 16.9263 18.5191 17.831Z" fill="black"/>
<path d="M14.5 21.7987C10.4755 21.7987 7.20135 18.5245 7.20135 14.5C7.20135 14.2313 6.98351 14.0134 6.71475 14.0134C6.44605 14.0134 6.22815 14.2312 6.22815 14.5C6.22815 19.0611 9.93885 22.7718 14.4999 22.7718C14.7686 22.7718 14.9865 22.554 14.9865 22.2852C14.9866 22.0165 14.7687 21.7987 14.5 21.7987Z" fill="black"/>
<path d="M14.5 6.2282C14.2313 6.2282 14.0134 6.44604 14.0134 6.7148C14.0134 6.98351 14.2312 7.2014 14.5 7.2014C18.5245 7.2014 21.7987 10.4756 21.7987 14.5001C21.7987 14.7688 22.0165 14.9867 22.2853 14.9867C22.554 14.9867 22.7718 14.7688 22.7718 14.5001C22.7718 9.9389 19.0611 6.2282 14.5 6.2282Z" fill="black"/>
<path d="M14.5 23.8747C9.33075 23.8747 5.1253 19.6692 5.1253 14.5C5.1253 14.2313 4.90746 14.0134 4.6387 14.0134C4.37 14.0134 4.1521 14.2312 4.1521 14.5C4.1521 20.2059 8.79414 24.8479 14.5 24.8479C14.7687 24.8479 14.9866 24.6301 14.9866 24.3613C14.9866 24.0925 14.7687 23.8747 14.5 23.8747Z" fill="black"/>
<path d="M14.5 4.1521C14.2313 4.1521 14.0134 4.36994 14.0134 4.6387C14.0134 4.9074 14.2312 5.1253 14.5 5.1253C19.6692 5.1253 23.8747 9.33075 23.8747 14.5C23.8747 14.7687 24.0925 14.9866 24.3613 14.9866C24.6301 14.9866 24.8479 14.7688 24.8479 14.5C24.8479 8.79414 20.2059 4.1521 14.5 4.1521Z" fill="black"/>
<path d="M14.5 25.9508C8.18604 25.9508 3.04919 20.814 3.04919 14.5C3.04919 14.2313 2.83135 14.0134 2.56259 14.0134C2.29383 14.0134 2.07599 14.2312 2.07599 14.5C2.07599 21.3506 7.64937 26.9239 14.4999 26.9239C14.7686 26.9239 14.9865 26.7061 14.9865 26.4373C14.9866 26.1686 14.7687 25.9508 14.5 25.9508Z" fill="black"/>
<path d="M14.5 2.07605C14.2313 2.07605 14.0134 2.29389 14.0134 2.56265C14.0134 2.83141 14.2312 3.04925 14.5 3.04925C20.814 3.04925 25.9508 8.1861 25.9508 14.5001C25.9508 14.7688 26.1686 14.9867 26.4374 14.9867C26.7061 14.9867 26.924 14.7688 26.924 14.5001C26.9239 7.64943 21.3506 2.07605 14.5 2.07605Z" fill="black"/>
</g>
<defs>
<clipPath id="clip0_1905_16625">
<rect width="29" height="29" fill="white"/>
</clipPath>
</defs>
</svg>
