<svg width="45" height="32" viewBox="0 0 45 32" fill="none" xmlns="http://www.w3.org/2000/svg">
<rect x="0.5" y="0.5" width="44" height="30.7647" rx="4.79412" fill="#1A1A1A" stroke="#333333"/>
<path fill-rule="evenodd" clip-rule="evenodd" d="M14.2298 20.989H11.5037L9.45943 12.9606C9.3624 12.5913 9.15638 12.2648 8.85333 12.1109C8.09703 11.7242 7.26364 11.4165 6.35449 11.2613V10.9522H10.7461C11.3522 10.9522 11.8067 11.4165 11.8825 11.9557L12.9432 17.7469L15.668 10.9522H18.3184L14.2298 20.989ZM19.8327 20.989H17.2581L19.3781 10.9522H21.9527L19.8327 20.989ZM25.2856 13.7327C25.3614 13.1921 25.8159 12.883 26.3463 12.883C27.1797 12.8054 28.0875 12.9606 28.8451 13.346L29.2997 11.185C28.5421 10.8759 27.7087 10.7207 26.9524 10.7207C24.4535 10.7207 22.6352 12.1109 22.6352 14.0404C22.6352 15.5083 23.9232 16.279 24.8323 16.7433C25.8159 17.2063 26.1947 17.5154 26.119 17.9783C26.119 18.6728 25.3614 18.9819 24.6051 18.9819C23.6959 18.9819 22.7868 18.7504 21.9547 18.3637L21.5001 20.526C22.4093 20.9114 23.3929 21.0666 24.302 21.0666C27.1039 21.1429 28.8451 19.7539 28.8451 17.6693C28.8451 15.044 25.2856 14.8901 25.2856 13.7327ZM37.8554 20.989L35.8111 10.9522H33.6153C33.1608 10.9522 32.7062 11.2613 32.5547 11.7242L28.7692 20.989H31.4196L31.9486 19.5225H35.205L35.5081 20.989H37.8554ZM33.9923 13.6551L34.7486 17.4378H32.6286L33.9923 13.6551Z" fill="white"/>
</svg>
